<svg width="20" height="10" viewBox="0 0 20 10" fill="none" xmlns="http://www.w3.org/2000/svg">
<path d="M19.18 1.68C19.18 2.13333 19.0133 2.52 18.68 2.84C18.3467 3.16 17.9533 3.32 17.5 3.32C17.2867 3.32 17.1467 3.30667 17.08 3.28L14.1 6.24C14.1533 6.4 14.18 6.54667 14.18 6.68C14.18 7.13333 14.0133 7.52 13.68 7.84C13.3467 8.16 12.9533 8.32 12.5 8.32C12.0467 8.32 11.6533 8.16 11.32 7.84C10.9867 7.52 10.82 7.13333 10.82 6.68C10.82 6.54667 10.8467 6.4 10.9 6.24L8.76 4.1C8.6 4.15333 8.44667 4.18 8.3 4.18C8.16667 4.18 8.03333 4.15333 7.9 4.1L4.1 7.88C4.15333 8.04 4.18 8.18667 4.18 8.32C4.18 8.77333 4.01333 9.16667 3.68 9.5C3.34667 9.83333 2.95333 10 2.5 10C2.04667 10 1.65333 9.83333 1.32 9.5C0.986667 9.16667 0.82 8.77333 0.82 8.32C0.82 7.86667 0.986667 7.48 1.32 7.16C1.65333 6.84 2.04667 6.68 2.5 6.68C2.71333 6.68 2.86 6.69333 2.94 6.72L6.72 2.92C6.69333 2.85333 6.68 2.71333 6.68 2.5C6.68 2.04667 6.84 1.65333 7.16 1.32C7.48 0.986666 7.86667 0.82 8.32 0.82C8.77333 0.82 9.16667 0.986666 9.5 1.32C9.83333 1.65333 10 2.04667 10 2.5C10 2.71333 9.98667 2.85333 9.96 2.92L12.08 5.04C12.1467 5.01333 12.2867 5 12.5 5C12.7133 5 12.86 5.01333 12.94 5.04L15.9 2.1C15.8467 1.96667 15.82 1.82667 15.82 1.68C15.82 1.22667 15.9867 0.833333 16.32 0.499999C16.6533 0.166666 17.0467 -4.76837e-07 17.5 -4.76837e-07C17.9533 -4.76837e-07 18.3467 0.166666 18.68 0.499999C19.0133 0.833333 19.18 1.22667 19.18 1.68Z" fill="white"/>
</svg>
