<svg width="20" height="20" viewBox="0 0 20 20" fill="none" xmlns="http://www.w3.org/2000/svg">
<g clip-path="url(#clip0_8078_18527)">
<path d="M5.13973 5.75266C5.2958 5.88445 5.51874 5.85128 5.63786 5.67864C6.68614 4.15848 8.27605 3.28671 10 3.28671C11.7239 3.28671 13.3139 4.15853 14.3621 5.67864C14.4321 5.78005 14.5379 5.8333 14.6449 5.8333C14.7201 5.8333 14.7959 5.80702 14.8603 5.75266C15.0162 5.62081 15.0462 5.374 14.9271 5.20131C13.7432 3.48458 11.9474 2.5 10 2.5C8.05263 2.5 6.25678 3.48458 5.0729 5.20131C4.95383 5.374 4.98376 5.62081 5.13973 5.75266Z" fill="white"/>
<path d="M14.1667 7.91663C14.1667 8.60584 14.7275 9.16663 15.4167 9.16663C16.106 9.16663 16.6667 8.60584 16.6667 7.91663C16.6667 7.22741 16.106 6.66663 15.4167 6.66663C14.7275 6.66663 14.1667 7.22736 14.1667 7.91663H14.1667Z" fill="white"/>
<path d="M8.33325 6.66667C8.33325 7.58562 9.08097 8.33333 9.99992 8.33333C10.9189 8.33333 11.6666 7.58562 11.6666 6.66667C11.6666 5.74771 10.9189 5 9.99992 5C9.08097 5 8.33325 5.74764 8.33325 6.66667H8.33325Z" fill="white"/>
<path d="M16.6698 9.28448C16.667 9.28348 16.3585 9.18357 16.3585 9.18357C16.2467 9.14757 16.1254 9.16974 16.0318 9.24362L15.4166 9.72971L14.8013 9.24362C14.7077 9.16969 14.5863 9.14751 14.4747 9.18357C14.4747 9.18357 14.1661 9.28348 14.1633 9.28448C13.6668 9.45916 13.3333 9.94746 13.3333 10.4996V12.4532C13.3333 12.5285 13.3541 12.6022 13.3934 12.6652L14.0143 13.6622V16.2805C14.0143 16.4938 14.1781 16.6666 14.3802 16.6666H16.4529C16.6551 16.6666 16.8189 16.4938 16.8189 16.2805V13.6622L17.4398 12.6652C17.479 12.6022 17.4999 12.5285 17.4999 12.4532V10.4996C17.4999 9.94746 17.1663 9.45916 16.6698 9.28448Z" fill="white"/>
<path d="M4.58328 9.16663C5.27248 9.16663 5.83325 8.60584 5.83325 7.91663C5.83325 7.22741 5.27248 6.66663 4.58328 6.66663C3.89408 6.66663 3.33325 7.22736 3.33325 7.91663C3.33325 8.60589 3.89403 9.16663 4.58328 9.16663Z" fill="white"/>
<path d="M5.83663 9.28448C5.8338 9.28348 5.52525 9.18357 5.52525 9.18357C5.41347 9.14757 5.29221 9.16974 5.19861 9.24362L4.58333 9.72971L3.96805 9.24362C3.87451 9.16969 3.75304 9.14751 3.64142 9.18357C3.64142 9.18357 3.33286 9.28348 3.33003 9.28448C2.83355 9.45916 2.5 9.94746 2.5 10.4996V12.4532C2.5 12.5285 2.52086 12.6022 2.56016 12.6652L3.18105 13.6622V16.2805C3.18105 16.4938 3.34486 16.6666 3.54699 16.6666H5.61968C5.8218 16.6666 5.98562 16.4938 5.98562 16.2805V13.6622L6.60651 12.6652C6.64576 12.6022 6.66667 12.5285 6.66667 12.4532V10.4996C6.66667 9.94746 6.33306 9.45916 5.83663 9.28448Z" fill="white"/>
<path d="M11.6109 8.41221L11.6085 8.41141L11.1899 8.27974C11.1238 8.25894 11.0533 8.29475 11.0295 8.36154L10.1493 10.8372C10.0985 10.98 9.90149 10.98 9.85069 10.8372L8.97046 8.36154C8.95129 8.30762 8.90166 8.2738 8.84842 8.2738C8.83582 8.2738 8.39201 8.41121 8.39201 8.41121C7.85725 8.59386 7.5 9.102 7.5 9.67658V12.2954C7.5 12.3214 7.50744 12.3468 7.52136 12.3686L8.43984 13.8012V17.4262C8.43984 17.4999 8.49803 17.5595 8.56985 17.5595H11.4301C11.502 17.5595 11.5602 17.4999 11.5602 17.4262V13.8012L12.4786 12.3686C12.4926 12.3468 12.5 12.3214 12.5 12.2954V9.6697C12.5 9.09761 12.1413 8.59032 11.6109 8.41221Z" fill="white"/>
</g>
<defs>
<clipPath id="clip0_8078_18527">
<rect width="20" height="20" fill="white"/>
</clipPath>
</defs>
</svg>
